# xmcd CD database file
#
# Track frame offsets:
#	150
#	9277
#	27969
#	46500
#	69652
#	90152
#	107710
#	120187
#	135385
#	156245
#	176147
#
# Disc length: 2662 seconds
#
# Revision: 0
# Processed by: cddbd v1.4PL0 Copyright (c) Steve Scherf et al.
# Submitted via: CDex 1.50
#
DISCID=770a640b
DTITLE=Carl Perkins - Silver Eagle Cross Country
DYEAR=1997
DGENRE=Country
TTITLE0=Intro
TTITLE1=Matchbox
TTITLE2=Mojo Working
TTITLE3=Gone, Gone, Gone
TTITLE4=High Heel Sneakers
TTITLE5=Honey Don't
TTITLE6=Tennessee Waltz
TTITLE7=Dixie Fried
TTITLE8=I Got A Woman
TTITLE9=That's Alright
TTITLE10=Blue Suede Shoes
EXTD=YEAR: 1997
EXTT0=
EXTT1=
EXTT2=
EXTT3=
EXTT4=
EXTT5=
EXTT6=
EXTT7=
EXTT8=
EXTT9=
EXTT10=
PLAYORDER=
